<?xml version="1.0" encoding="UTF-8" standalone="no"?>
<!-- Created with Inkscape (http://www.inkscape.org/) -->

<svg
   xmlns:dc="http://purl.org/dc/elements/1.1/"
   xmlns:cc="http://creativecommons.org/ns#"
   xmlns:rdf="http://www.w3.org/1999/02/22-rdf-syntax-ns#"
   xmlns:svg="http://www.w3.org/2000/svg"
   xmlns="http://www.w3.org/2000/svg"
   xmlns:sodipodi="http://sodipodi.sourceforge.net/DTD/sodipodi-0.dtd"
   xmlns:inkscape="http://www.inkscape.org/namespaces/inkscape"
   version="1.1"
   id="svg869"
   width="512"
   height="512"
   viewBox="0 0 512 512"
   sodipodi:docname="rewards.svg"
   inkscape:version="0.92.5 (2060ec1f9f, 2020-04-08)">
  <metadata
     id="metadata875">
    <rdf:RDF>
      <cc:Work
         rdf:about="">
        <dc:format>image/svg+xml</dc:format>
        <dc:type
           rdf:resource="http://purl.org/dc/dcmitype/StillImage" />
        <dc:title></dc:title>
      </cc:Work>
    </rdf:RDF>
  </metadata>
  <defs
     id="defs873" />
  <sodipodi:namedview
     pagecolor="#ffffff"
     bordercolor="#666666"
     borderopacity="1"
     objecttolerance="10"
     gridtolerance="10"
     guidetolerance="10"
     inkscape:pageopacity="0"
     inkscape:pageshadow="2"
     inkscape:window-width="1920"
     inkscape:window-height="1015"
     id="namedview871"
     showgrid="false"
     inkscape:zoom="0.55795144"
     inkscape:cx="-325.8105"
     inkscape:cy="526.10152"
     inkscape:window-x="1920"
     inkscape:window-y="0"
     inkscape:window-maximized="1"
     inkscape:current-layer="svg869" />
  <path
     style="fill:#000000"
     d="m 335.5,511.05674 c -32.64546,-3.24258 -62.30783,-15.294 -87.57371,-35.58003 l -6.57371,-5.27804 -11.90461,7.65066 c -11.72804,7.5372 -12.00133,7.65063 -18.42628,7.648 L 204.5,485.49465 187.79031,474.74733 C 178.59999,468.8363 170.86543,464 170.60242,464 c -0.26302,0 -8.0406,4.8375 -17.28352,10.75 l -16.8053,10.75 -6.5068,-0.009 -6.5068,-0.009 -16.77829,-10.74108 C 97.493653,468.83349 89.744557,464 89.501499,464 c -0.243058,0 -7.992828,4.8375 -17.221711,10.75 L 55.5,485.5 H 49 42.5 l -17,-10.85309 c -9.35,-5.9692 -18.2929225,-12.0442 -19.873161,-13.5 -6.01438436,-5.54077 -5.62878822,9.44757 -5.604877,-217.86479 C 0.04304803,42.82743 0.11718642,34.340457 1.8807311,30.5 4.254879,25.329837 4.3358612,25.265947 25.480138,11.881516 42.798338,0.91901028 43.66349,0.5 48.980138,0.5 c 6.054919,0 4.920285,-0.57434843 28.108993,14.228694 l 12.589132,8.036561 16.910867,-10.857996 c 9.30098,-5.9718976 18.46772,-11.1618617 20.37055,-11.53325354 5.65835,-1.10439428 9.93343,0.74248144 27.0842,11.70062554 8.97431,5.733953 16.62739,10.33232 17.00685,10.218593 0.37946,-0.113727 8.28272,-5.063727 17.5628,-11 C 204.89578,0.8778045 205.68151,0.5 211.06051,0.5 c 5.36175,0 6.22409,0.40954438 22.63512,10.75 9.38355,5.9125 17.56778,10.75 18.18718,10.75 0.61939,0 8.49562,-4.725546 17.50274,-10.501212 C 286.23363,0.69522933 289.48364,-0.69465365 295.33225,0.40255258 298.76257,1.0460837 331.16086,20.935228 335.73007,25.202568 341.21974,30.329551 341,26.780902 341,110.30676 v 77.40609 l 15.25,0.60463 c 25.03247,0.99249 45.5457,6.35946 67.56178,17.67652 45.5785,23.42898 76.84494,65.97055 85.6712,116.56545 11.47081,65.75433 -19.84844,132.81582 -77.96725,166.94523 -28.39491,16.67449 -64.20243,24.71198 -96.01573,21.55206 z m 42.53551,-18.9399 c 28.84436,-5.81807 52.71605,-18.73157 74.03291,-40.04842 21.8581,-21.8581 34.92479,-46.52709 40.55682,-76.56842 2.72857,-14.55422 2.50999,-40.29341 -0.46016,-54.18841 -6.85588,-32.07323 -24.02066,-61.34571 -47.62865,-81.22497 -21.29597,-17.93242 -44.25663,-28.68566 -71.03068,-33.26605 -16.3692,-2.80038 -39.91165,-2.15463 -55.61697,1.52551 -54.87912,12.85952 -96.68535,54.69445 -109.56466,109.63986 -3.65717,15.60217 -4.29613,39.19617 -1.50355,55.51981 11.08385,64.78912 61.56136,112.38822 128.17943,120.87016 7.71422,0.98218 33.73915,-0.38395 43.03551,-2.25907 z M 276.5,426.10178 c -4.46232,-1.12225 -5.50584,-1.84128 -24.47307,-16.86306 -9.61018,-7.61114 -18.32461,-15.29648 -19.36538,-17.07853 -2.33907,-4.00503 -2.48315,-11.67071 -0.29877,-15.89484 1.39685,-2.70121 17.29139,-16.00327 34.86111,-29.17508 6.75622,-5.06506 12.18704,-6.59525 17.9243,-5.05037 5.19977,1.40016 10.57717,6.41037 12.29997,11.4601 l 1.36467,4 48.84358,0.5 c 45.14453,0.46213 49.12908,0.64187 52.61328,2.37329 7.09842,3.52744 9.71916,9.89829 9.71916,23.62671 0,13.72842 -2.62074,20.09927 -9.71916,23.62671 -3.4842,1.73142 -7.46875,1.91116 -52.61336,2.37329 l -48.84368,0.5 -1.32108,3.84481 c -2.99488,8.71615 -12.31858,13.93817 -20.99157,11.75697 z m 5.5,-22.92747 c 0,-4.78962 0.40992,-6.21078 2.30493,-7.99106 2.29618,-2.15714 2.50605,-2.16635 55.25,-2.42431 L 392.5,392.5 v -8.5 -8.5 l -52.94507,-0.25894 c -52.74395,-0.25796 -52.95382,-0.26717 -55.25,-2.42431 C 282.40992,371.03647 282,369.61531 282,364.82569 282,361.62156 281.68733,359 281.30518,359 c -0.88968,0 -33.25009,24.33292 -33.24756,25 0.003,0.68867 32.26015,24.97277 33.19238,24.98786 0.4125,0.007 0.75,-2.60942 0.75,-5.81355 z m 130,-46.29274 c -4.31083,-1.70994 -9.02672,-7.10206 -10.16501,-11.62261 L 400.76257,341 h -49.04343 -49.04342 l -4.24181,-2.48587 C 291.7825,334.61615 290,329.88997 290,316.15216 c 0,-15.36017 2.2078,-20.46363 10.5,-24.27143 3.70305,-1.70045 7.57018,-1.83844 52.09171,-1.85877 l 48.09171,-0.022 1.15787,-3.8646 c 3.09733,-10.33798 14.01955,-15.72734 23.68714,-11.68797 4.52346,1.89002 38.76384,28.8235 41.01931,32.26578 1.96059,2.99223 3.01338,9.91496 2.0759,13.65021 -0.34268,1.36534 -1.78424,3.86243 -3.20347,5.54909 -3.23653,3.84639 -33.71488,27.916 -38.38161,30.31103 -3.75264,1.92591 -11.03849,2.24471 -15.03856,0.65803 z m 24.35072,-29.17154 c 8.71789,-6.54972 15.46789,-12.25062 15,-12.66866 -0.4679,-0.41803 -8.16322,-6.2339 -17.10072,-12.92416 L 418,289.9531 v 6.06891 c 0,5.11019 -0.38775,6.45665 -2.45455,8.52344 L 413.09091,307 H 360.04545 307 v 8.4744 8.47439 l 53.08709,0.27561 53.08709,0.2756 2.41291,2.80576 c 1.91835,2.23069 2.41291,3.93373 2.41291,8.30902 0,4.13578 0.31061,5.31696 1.25,4.75355 0.6875,-0.41233 8.38282,-6.10857 17.10072,-12.6583 z M 67.213386,457.83322 c 16.724999,-10.65112 21.201361,-12.2787 27.618182,-10.04178 1.634207,0.56969 9.779432,5.36908 18.100492,10.66532 8.32107,5.29624 15.71363,9.85378 16.42792,10.12788 0.71429,0.2741 8.82313,-4.30314 18.01965,-10.17164 17.651,-11.2635 21.97738,-12.8786 28.45194,-10.62156 1.63421,0.56969 9.77943,5.36908 18.10049,10.66532 8.32107,5.29624 15.73418,9.86167 16.4736,10.14541 0.73942,0.28374 5.20519,-2.0007 9.92394,-5.07654 l 8.57955,-5.59243 -8.33314,-11.00686 C 206.19002,427.92453 196.19303,405.75701 190.8449,381 c -1.95234,-9.03757 -2.26826,-13.42486 -2.26826,-31.5 0,-17.94576 0.32188,-22.4783 2.21316,-31.16436 C 204.65108,254.67516 249.45762,208.1246 311.75,192.66725 L 324,189.62751 V 113.4239 37.220302 L 308.09322,27.090247 292.18643,16.960192 275.56695,27.591332 c -17.46684,11.173173 -21.76344,12.944427 -27.61704,11.385001 -1.95255,-0.520169 -11.06604,-5.675191 -20.2522,-11.455604 L 210.9956,17.010886 194.48619,27.613372 c -9.08017,5.831367 -18.0782,10.956306 -19.99561,11.388752 -5.99784,1.352732 -10.91604,-0.674212 -27.94167,-11.515616 l -16.51869,-10.518607 -15.76511,10.1589 C 96.493347,38.578771 91.742473,40.546287 85.754833,38.933983 83.586613,38.350142 74.443806,33.18024 65.437484,27.445312 L 49.062353,17.01817 33.028802,27.197642 16.995252,37.377115 17.247626,243.32846 17.5,449.27981 33,459.14076 c 8.65742,5.50777 16.135336,9.62165 16.939181,9.31888 0.79155,-0.29813 8.564942,-5.08002 17.274205,-10.62642 z M 45.454545,398.54545 c -3.022687,-3.02268 -3.268931,-8.31791 -0.543373,-11.68467 L 46.822344,384.5 100.64197,384.22428 c 37.26064,-0.19089 54.63172,0.0607 56.45911,0.81759 4.30468,1.78305 6.32657,8.51583 3.61712,12.04479 C 157.77822,400.91588 156.50567,401 101.52029,401 H 47.909091 Z m 0,-43 c -3.368556,-3.36855 -3.314112,-8.3893 0.126019,-11.62114 L 48.161128,341.5 h 54.506022 54.50602 l 2.41341,2.80576 c 3.15382,3.66653 3.13774,8.06083 -0.0411,11.23969 L 157.09091,358 H 102.5 47.909091 Z M 49,315.30694 c -6.101738,-2.2841 -7.938268,-9.45958 -3.545455,-13.85239 L 47.909091,299 H 102.5 157.09091 l 2.45454,2.45455 c 3.17862,3.17861 3.1949,7.57304 0.0416,11.23969 l -2.41291,2.80576 -53.33709,0.18422 C 74.501687,315.78555 49.825,315.61577 49,315.30694 Z M 88.789315,262.6367 C 86.344508,260.77926 85,256.62728 85,250.9349 85,246.80944 84.698152,246 83.159722,246 79.580819,246 68.811854,239.71662 63.798542,234.7033 58.021197,228.92596 53.517403,220.16621 51.941596,211.64188 50.124824,201.81406 52.752604,196.6 59.522397,196.6 c 5.161406,0 8.072011,3.29195 8.863297,10.02456 1.053793,8.96613 6.42289,17.15661 13.720425,20.93032 L 85,229.05136 V 203.7604 178.46944 l -5.25,-1.86206 C 65.168256,171.43557 54.408462,158.35363 51.802748,142.62865 48.889933,125.05037 58.570732,106.85562 75.28551,98.493554 79.126272,96.572099 82.83083,95 83.517861,95 c 0.830897,0 1.390602,-2.221497 1.671615,-6.634729 0.364492,-5.724231 0.799828,-6.95932 3.17226,-9 3.610021,-3.10521 8.024473,-3.069971 11.183719,0.08927 C 101.63912,81.548215 102,82.848155 102,88.296258 v 6.387167 l 4.25,1.269701 c 16.44321,4.912464 28.45333,19.743624 29.52622,36.461614 0.44659,6.95882 0.31485,7.5851 -2.10445,10.0044 -3.31395,3.31395 -7.91912,3.42442 -11.07781,0.26573 -1.53573,-1.53573 -2.68584,-4.41967 -3.41628,-8.56646 -1.41744,-8.0469 -4.58861,-13.69541 -10.00542,-17.82171 C 101.75155,110.6439 102,109.89532 102,137.90693 v 24.90693 l 5.6326,1.77167 c 6.51083,2.0479 15.61766,8.40991 19.67938,13.74795 13.54334,17.7991 11.52809,42.23231 -4.73838,57.44879 -5.92974,5.54698 -8.44047,6.93993 -19.3236,10.72071 -0.82337,0.28604 -1.25,2.60393 -1.25,6.79132 0,5.352 -0.36592,6.70084 -2.314451,8.53139 -2.623335,2.46449 -8.175912,2.87777 -10.896234,0.81101 z M 110.2395,224.02039 C 116.19761,218.77585 119,212.71574 119,205.076 c 0,-6.74309 -0.98197,-9.93411 -4.7357,-15.38923 C 112.02541,186.43312 104.76888,181 102.66214,181 102.29796,181 102,191.575 102,204.5 c 0,26.95366 -0.0556,26.822 8.2395,19.52039 z M 85,136.5 C 85,123.575 84.752653,113 84.45034,113 c -1.878884,0 -6.773857,3.56003 -9.872501,7.1801 C 71.113889,124.22694 68,131.95264 68,136.5 c 0,4.42802 3.201446,12.65984 6.292894,16.18081 3.015507,3.43447 8.286601,7.30713 9.957106,7.31545 C 84.6625,159.99832 85,149.425 85,136.5 Z m 79.88351,125.60676 c -1.78126,-1.44238 -2.33806,-2.89667 -2.33806,-6.10676 0,-6.97707 2.1728,-8 16.99275,-8 12.11479,0 12.35061,0.0432 14.38922,2.63486 C 195.06734,252.08403 196,254.49834 196,256 c 0,1.50166 -0.93266,3.91597 -2.07258,5.36514 C 191.88881,263.95682 191.65299,264 179.5382,264 c -10.59516,0 -12.64342,-0.26461 -14.65469,-1.89324 z m 0.0396,-43.02984 c -3.62524,-3.62524 -3.7268,-6.9683 -0.33419,-11.00019 L 167.17782,205 h 28.95656 28.95656 l 2.45454,2.45455 C 229.04723,208.95632 230,211.05948 230,212.87276 230,221.62689 228.58858,222 195.47274,222 h -27.62659 l -2.92307,-2.92308 z m -0.33419,-43.15365 c -3.39261,-4.03189 -3.29105,-7.37495 0.33419,-11.00019 L 167.84615,162 h 61.51183 c 38.32522,0 62.49696,0.37455 64.12529,0.99364 3.37222,1.28212 5.87161,6.94275 4.57328,10.35761 C 295.83223,179.20166 298.26662,179 229.86639,179 h -62.6886 l -2.5889,-3.07673 z m 0.29462,-41.81651 c -1.78126,-1.44238 -2.33806,-2.89667 -2.33806,-6.10676 0,-3.21009 0.5568,-4.66438 2.33806,-6.10676 2.23878,-1.81285 5.01133,-1.89324 65.29302,-1.89324 39.15258,0 63.6465,0.3701 64.78403,0.97889 4.36372,2.3354 4.36372,11.70682 0,14.04222 C 293.82303,135.6299 269.32911,136 230.17653,136 c -60.28169,0 -63.05424,-0.0804 -65.29302,-1.89324 z m 0.0396,-43.029837 c -3.62524,-3.62524 -3.
7268,-6.9683 -0.33419,-11.000198 L 167.17779,77 h 62.6886 c 68.40023,0 65.96584,-0.20166 68.19016,5.648745 1.29833,3.414861 -1.20106,9.075499 -4.57328,10.357616 C 291.85494,93.625452 267.6832,94 229.35798,94 h -61.51183 l -2.92307,-2.923077 z"
     id="path879"
     inkscape:connector-curvature="0" />
</svg>